<?xml version="1.0" encoding="utf-8"?>
<!-- Generator: Adobe Illustrator 19.2.1, SVG Export Plug-In . SVG Version: 6.00 Build 0)  -->
<svg version="1.1" id="Layer_1" xmlns="http://www.w3.org/2000/svg" xmlns:xlink="http://www.w3.org/1999/xlink" x="0px" y="0px"
	 viewBox="0 0 2513 1629.2" style="enable-background:new 0 0 2513 1629.2;" xml:space="preserve">
<style type="text/css">
	.st0{fill:url(#SVGID_1_);}
	.st1{fill:url(#SVGID_2_);}
	.st2{fill:url(#SVGID_3_);}
	.st3{fill:url(#SVGID_4_);}
	.st4{fill:url(#SVGID_5_);}
	.st5{fill:url(#SVGID_6_);}
	.st6{fill:url(#SVGID_7_);}
	.st7{fill:url(#SVGID_8_);}
	.st8{fill:#FFFFFF;}
	.st9{fill:#191D1E;}
</style>
<g>
	<g>
		<g>
			<linearGradient id="SVGID_1_" gradientUnits="userSpaceOnUse" x1="656.0793" y1="524.7758" x2="1893.7264" y2="524.7758">
				<stop  offset="0" style="stop-color:#2A59A2"/>
				<stop  offset="1" style="stop-color:#2A59A2"/>
			</linearGradient>
			<path class="st0" d="M1887.1,450.3c-6.5,0-16.5,0-22.1,0c-40.2-0.5-117.3,3.8-187.2,64.2c-166.9,144.5-205,357.2-490.6,472
				c-237.9,95.6-531.2,5.1-531.2,5.1s261.7-18.2,296.4-217.9c27.1-156.2-115-267.1-204.2-408C657.5,222.2,634.2,103,677.9,51.5
				C801.8-94.8,1143,300.7,1312.4,354c165.8,52.1,277.7-68.9,415-51.1c43.8,5.6,65.2,24.5,79.4,48.6c4.8,8.1,16.6,35.7,27.1,45.9
				c10.3,10,24,17.4,36.8,24.9C1887,431.9,1903.1,450.3,1887.1,450.3z"/>
			<linearGradient id="SVGID_2_" gradientUnits="userSpaceOnUse" x1="606.0245" y1="313.4741" x2="1915.1417" y2="313.4741">
				<stop  offset="0" style="stop-color:#91D3F2"/>
				<stop  offset="0.2664" style="stop-color:#6FB2DE"/>
				<stop  offset="0.5214" style="stop-color:#5598CE"/>
				<stop  offset="0.6729" style="stop-color:#4B8FC8"/>
			</linearGradient>
			<path class="st1" d="M1103,221.5c-41-31.2-83.3-63.9-124.9-93.7l0,0c-9.4-6.7-18.8-13.3-28.1-19.7c0,0,0,0,0,0
				C838.5,31.8,735.1-16,677.9,51.5c-43.7,51.5-20.4,170.7,70.4,314.2c0.9,1.5,1.9,2.9,2.8,4.4c47.3,73.2,184.5,244.7,509.7,237.4
				c21.4-22.7,53.9-65.6,95.9-112.3C1288.6,385.1,1186,289.1,1103,221.5z"/>
			<linearGradient id="SVGID_3_" gradientUnits="userSpaceOnUse" x1="656.0792" y1="812.9229" x2="1902.8132" y2="812.9229">
				<stop  offset="0" style="stop-color:#2C9EC7"/>
				<stop  offset="0.4037" style="stop-color:#2C63A5"/>
				<stop  offset="1" style="stop-color:#395DA1"/>
			</linearGradient>
			<path class="st2" d="M1430.8,738.9c1.3-48.8-7.6-96.9-24.5-143.4c-42.7,6.4-90.8,10.8-145.5,12
				c-39.8,42.3-130.7,155.3-281.3,257.1c-200.5,135.6-323.4,127-323.4,127s293.4,90.5,531.2-5.1c85.3-34.3,148.6-77.3,199.8-124.7
				C1395.5,853.8,1429,812,1430.8,738.9z"/>
			<linearGradient id="SVGID_4_" gradientUnits="userSpaceOnUse" x1="656.0793" y1="551.3698" x2="1902.8134" y2="551.3698">
				<stop  offset="0" style="stop-color:#4FAAC4"/>
				<stop  offset="1.554530e-03" style="stop-color:#2F75B1"/>
				<stop  offset="1" style="stop-color:#356EAC"/>
			</linearGradient>
			<path class="st3" d="M1356.8,495.2c-42,46.6-74.6,89.6-95.9,112.3c54.8-1.2,102.9-5.6,145.5-12c-5-13.9-10.8-27.6-17.2-41.1
				C1379.6,534.3,1368.7,514.5,1356.8,495.2z"/>
			<linearGradient id="SVGID_5_" gradientUnits="userSpaceOnUse" x1="1102.9924" y1="358.4096" x2="1909.9763" y2="358.4096">
				<stop  offset="0" style="stop-color:#4FAAC4"/>
				<stop  offset="1.554530e-03" style="stop-color:#2F81B6"/>
				<stop  offset="1" style="stop-color:#3B5EA9"/>
			</linearGradient>
			<path class="st4" d="M1600.6,318.3c-87.8,26.6-175.5,71.1-288.2,35.7c-55.8-17.5-130.3-72.2-209.4-132.5
				c83,67.6,185.6,163.5,253.8,273.7C1419,426.3,1502,349.3,1600.6,318.3z"/>
			<linearGradient id="SVGID_6_" gradientUnits="userSpaceOnUse" x1="1102.9684" y1="667.2916" x2="1909.9521" y2="667.2916">
				<stop  offset="0" style="stop-color:#4FAAC4"/>
				<stop  offset="1.554530e-03" style="stop-color:#1E3773"/>
				<stop  offset="1" style="stop-color:#203370"/>
			</linearGradient>
			<path class="st5" d="M1406.4,595.5c16.9,46.5,25.8,94.6,24.5,143.4c-1.9,73-35.4,114.8-43.8,122.9
				c120.1-111.1,173.8-246,290.8-347.3c21.8-18.8,44.2-32.2,66.1-41.7c0,0-0.1,0-0.1,0C1667.2,505,1584,568.7,1406.4,595.5z"/>
			<linearGradient id="SVGID_7_" gradientUnits="userSpaceOnUse" x1="1625.2458" y1="734.7019" x2="1625.2458" y2="292.1864">
				<stop  offset="0" style="stop-color:#4FAAC4"/>
				<stop  offset="1.554530e-03" style="stop-color:#2C5A9A"/>
				<stop  offset="1" style="stop-color:#374580"/>
			</linearGradient>
			<path class="st6" d="M1887.1,450.3c16,0-0.1-18.4-16.3-27.9c-12.8-7.6-26.5-15-36.8-24.9c-10.6-10.2-22.4-37.9-27.1-45.9
				c-14.3-24.2-35.6-43-79.4-48.6c-44-5.7-85.4,2.9-126.8,15.4c-98.6,31-181.7,108-243.9,176.9c11.9,19.3,22.9,39,32.4,59.1
				c6.4,13.6,12.2,27.3,17.2,41.1c177.7-26.8,260.8-90.5,337.5-122.7c0,0,0.1,0,0.1,0c48.3-21,93.5-22.9,121.1-22.5
				C1870.7,450.3,1880.7,450.3,1887.1,450.3z"/>
			<linearGradient id="SVGID_8_" gradientUnits="userSpaceOnUse" x1="521.4948" y1="680.8901" x2="1439.8284" y2="680.8901">
				<stop  offset="0.1115" style="stop-color:#38B1DA"/>
				<stop  offset="1" style="stop-color:#326FB5"/>
			</linearGradient>
			<path class="st7" d="M979.5,864.6c150.6-101.8,241.5-214.8,281.3-257.1c-325.2,7.3-462.4-164.2-509.7-237.4
				C840.4,509,979.3,619.2,952.5,773.7c-34.7,199.7-296.4,217.9-296.4,217.9S779,1000.2,979.5,864.6z"/>
			<ellipse class="st8" cx="1718.4" cy="377.4" rx="26" ry="25.8"/>
		</g>
		<g>
			<g>
				<path class="st9" d="M1210,1288c-73.4,0-133,59.2-133,132v39.2c0,72.8,59.7,132,133,132h84.6v-47.9H1210
					c-45.2,0-82.3-35.4-84.6-79.7h173.8c24.2,0,43.9-19.6,43.9-43.6C1343.1,1347.2,1283.4,1288,1210,1288z M1125.4,1415.7
					c2.3-44.3,39.4-79.7,84.6-79.7c45.2,0,82.3,35.4,84.6,79.7H1125.4z"/>
				<path class="st9" d="M424.6,1222.4c-18.8,19.4-29.2,44.7-29.2,71.4v6.4h-27.9v47.9h27.9v243h48.3v-243h65v-47.9h-65v-6.4
					c0-29.3,24-54.1,52.5-54.1h35.7v-48h-35.7C469.2,1191.8,443.8,1202.6,424.6,1222.4z"/>
				<rect x="607.8" y="1191.4" class="st9" width="48.3" height="399.9"/>
				<path class="st9" d="M949.4,1467.9c0,41.6-34.1,75.4-76,75.4c-41.9,0-76-33.8-76-75.4V1288h-48.3v179.9
					c0,68,55.7,123.3,124.3,123.3c68.5,0,124.3-55.3,124.3-123.3V1288h-48.3V1467.9z"/>
				<path class="st9" d="M1515.9,1288c-68.5,0-124.3,55.3-124.3,123.3v179.9h48.3v-179.9c0-41.6,34.1-75.4,76-75.4
					c41.9,0,76,33.8,76,75.4v179.9h48.3v-179.9C1640.2,1343.3,1584.4,1288,1515.9,1288z"/>
				<path class="st9" d="M1780,1489.2v-153.2h65.4v-0.1V1288H1780v-96.6h-48.3v96.6h-42.9v47.9h42.9v153.2
					c0,55.2,45.2,100.1,100.8,100.1h21.4v-48h-21.4C1803.5,1541.3,1780,1517.9,1780,1489.2z"/>
				<path class="st9" d="M2095.2,1191.4v122.5c-21-16.2-47.4-25.8-76-25.8c-68.5,0-124.3,55.3-124.3,123.3v19.8v7.2v29.6
					c0,68,55.8,123.3,124.3,123.3c68.5,0,124.3-55.3,124.3-123.3v-8.7v-20.9v-7.2v-19.8v-220H2095.2z M2095.2,1438.3v20.9v8.7
					c0,41.6-34.1,75.4-76,75.4c-41.9,0-76-33.8-76-75.4v-29.6v-7.2v-19.8c0-41.6,34.1-75.4,76-75.4c41.9,0,76,33.8,76,75.4v19.8
					V1438.3z"/>
			</g>
		</g>
	</g>
</g>
</svg>
