<svg xmlns="http://www.w3.org/2000/svg" viewBox="0 0 2513 1629.2"><linearGradient id="a" gradientUnits="userSpaceOnUse" x1="656.079" y1="524.776" x2="1893.726" y2="524.776"><stop offset="0" stop-color="#2a59a2"/><stop offset="1" stop-color="#2a59a2"/></linearGradient><path d="M1887.1 450.3H1865c-40.2-.5-117.3 3.8-187.2 64.2-166.9 144.5-205 357.2-490.6 472-237.9 95.6-531.2 5.1-531.2 5.1s261.7-18.2 296.4-217.9c27.1-156.2-115-267.1-204.2-408-90.7-143.5-114-262.7-70.3-314.2C801.8-94.8 1143 300.7 1312.4 354c165.8 52.1 277.7-68.9 415-51.1 43.8 5.6 65.2 24.5 79.4 48.6 4.8 8.1 16.6 35.7 27.1 45.9 10.3 10 24 17.4 36.8 24.9 16.3 9.6 32.4 28 16.4 28z" fill="url(#a)"/><linearGradient id="b" gradientUnits="userSpaceOnUse" x1="606.024" y1="313.474" x2="1915.142" y2="313.474"><stop offset="0" stop-color="#91d3f2"/><stop offset=".266" stop-color="#6fb2de"/><stop offset=".521" stop-color="#5598ce"/><stop offset=".673" stop-color="#4b8fc8"/></linearGradient><path d="M1103 221.5c-41-31.2-83.3-63.9-124.9-93.7-9.4-6.7-18.8-13.3-28.1-19.7C838.5 31.8 735.1-16 677.9 51.5c-43.7 51.5-20.4 170.7 70.4 314.2.9 1.5 1.9 2.9 2.8 4.4 47.3 73.2 184.5 244.7 509.7 237.4 21.4-22.7 53.9-65.6 95.9-112.3-68.1-110.1-170.7-206.1-253.7-273.7z" fill="url(#b)"/><linearGradient id="c" gradientUnits="userSpaceOnUse" x1="656.079" y1="812.923" x2="1902.813" y2="812.923"><stop offset="0" stop-color="#2c9ec7"/><stop offset=".404" stop-color="#2c63a5"/><stop offset="1" stop-color="#395da1"/></linearGradient><path d="M1430.8 738.9c1.3-48.8-7.6-96.9-24.5-143.4-42.7 6.4-90.8 10.8-145.5 12-39.8 42.3-130.7 155.3-281.3 257.1-200.5 135.6-323.4 127-323.4 127s293.4 90.5 531.2-5.1c85.3-34.3 148.6-77.3 199.8-124.7 8.4-8 41.9-49.8 43.7-122.9z" fill="url(#c)"/><linearGradient id="d" gradientUnits="userSpaceOnUse" x1="656.079" y1="551.37" x2="1902.813" y2="551.37"><stop offset="0" stop-color="#4faac4"/><stop offset=".002" stop-color="#2f75b1"/><stop offset="1" stop-color="#356eac"/></linearGradient><path d="M1356.8 495.2c-42 46.6-74.6 89.6-95.9 112.3 54.8-1.2 102.9-5.6 145.5-12-5-13.9-10.8-27.6-17.2-41.1-9.6-20.1-20.5-39.9-32.4-59.2z" fill="url(#d)"/><linearGradient id="e" gradientUnits="userSpaceOnUse" x1="1102.992" y1="358.41" x2="1909.976" y2="358.41"><stop offset="0" stop-color="#4faac4"/><stop offset=".002" stop-color="#2f81b6"/><stop offset="1" stop-color="#3b5ea9"/></linearGradient><path d="M1600.6 318.3c-87.8 26.6-175.5 71.1-288.2 35.7-55.8-17.5-130.3-72.2-209.4-132.5 83 67.6 185.6 163.5 253.8 273.7 62.2-68.9 145.2-145.9 243.8-176.9z" fill="url(#e)"/><linearGradient id="f" gradientUnits="userSpaceOnUse" x1="1102.968" y1="667.292" x2="1909.952" y2="667.292"><stop offset="0" stop-color="#4faac4"/><stop offset=".002" stop-color="#1e3773"/><stop offset="1" stop-color="#203370"/></linearGradient><path d="M1406.4 595.5c16.9 46.5 25.8 94.6 24.5 143.4-1.9 73-35.4 114.8-43.8 122.9 120.1-111.1 173.8-246 290.8-347.3 21.8-18.8 44.2-32.2 66.1-41.7h-.1c-76.7 32.2-159.9 95.9-337.5 122.7z" fill="url(#f)"/><linearGradient id="g" gradientUnits="userSpaceOnUse" x1="1625.246" y1="734.702" x2="1625.246" y2="292.186"><stop offset="0" stop-color="#4faac4"/><stop offset=".002" stop-color="#2c5a9a"/><stop offset="1" stop-color="#374580"/></linearGradient><path d="M1887.1 450.3c16 0-.1-18.4-16.3-27.9-12.8-7.6-26.5-15-36.8-24.9-10.6-10.2-22.4-37.9-27.1-45.9-14.3-24.2-35.6-43-79.4-48.6-44-5.7-85.4 2.9-126.8 15.4-98.6 31-181.7 108-243.9 176.9 11.9 19.3 22.9 39 32.4 59.1 6.4 13.6 12.2 27.3 17.2 41.1 177.7-26.8 260.8-90.5 337.5-122.7h.1c48.3-21 93.5-22.9 121.1-22.5h22z" fill="url(#g)"/><linearGradient id="h" gradientUnits="userSpaceOnUse" x1="521.495" y1="680.89" x2="1439.828" y2="680.89"><stop offset=".112" stop-color="#38b1da"/><stop offset="1" stop-color="#326fb5"/></linearGradient><path d="M979.5 864.6c150.6-101.8 241.5-214.8 281.3-257.1-325.2 7.3-462.4-164.2-509.7-237.4C840.4 509 979.3 619.2 952.5 773.7c-34.7 199.7-296.4 217.9-296.4 217.9s122.9 8.6 323.4-127z" fill="url(#h)"/><ellipse cx="1718.4" cy="377.4" rx="26" ry="25.8" fill="#fff"/><path d="M1210 1288c-73.4 0-133 59.2-133 132v39.2c0 72.8 59.7 132 133 132h84.6v-47.9H1210c-45.2 0-82.3-35.4-84.6-79.7h173.8c24.2 0 43.9-19.6 43.9-43.6 0-72.8-59.7-132-133.1-132zm-84.6 127.7c2.3-44.3 39.4-79.7 84.6-79.7 45.2 0 82.3 35.4 84.6 79.7h-169.2zm-700.8-193.3c-18.8 19.4-29.2 44.7-29.2 71.4v6.4h-27.9v47.9h27.9v243h48.3v-243h65v-47.9h-65v-6.4c0-29.3 24-54.1 52.5-54.1h35.7v-48h-35.7c-27 .1-52.4 10.9-71.6 30.7zm183.2-31h48.3v399.9h-48.3zm341.6 276.5c0 41.6-34.1 75.4-76 75.4s-76-33.8-76-75.4V1288h-48.3v179.9c0 68 55.7 123.3 124.3 123.3 68.5 0 124.3-55.3 124.3-123.3V1288h-48.3v179.9zm566.5-179.9c-68.5 0-124.3 55.3-124.3 123.3v179.9h48.3v-179.9c0-41.6 34.1-75.4 76-75.4s76 33.8 76 75.4v179.9h48.3v-179.9c0-68-55.8-123.3-124.3-123.3zm264.1 201.2V1336h65.4v-48H1780v-96.6h-48.3v96.6h-42.9v47.9h42.9v153.2c0 55.2 45.2 100.1 100.8 100.1h21.4v-48h-21.4c-29 .1-52.5-23.3-52.5-52zm315.2-297.8v122.5c-21-16.2-47.4-25.8-76-25.8-68.5 0-124.3 55.3-124.3 123.3v56.6c0 68 55.8 123.3 124.3 123.3s124.3-55.3 124.3-123.3v-276.6h-48.3zm0 246.9v29.6c0 41.6-34.1 75.4-76 75.4s-76-33.8-76-75.4v-56.6c0-41.6 34.1-75.4 76-75.4s76 33.8 76 75.4v27z" fill="#191d1e"/></svg>