<svg data-name="Layer 1" xmlns="http://www.w3.org/2000/svg" width="1027.992" height="529.556" viewBox="0 0 1027.992 529.556"><path fill="#3dc8bb" d="M305.992 295.386h343.72v234.17h-343.72z"/><path d="M668.882 267.996h-338.24a4.116 4.116 0 00-4.11 4.11v228.69a4.11 4.11 0 004.11 4.11h338.24a4.11 4.11 0 004.11-4.11v-228.69a4.116 4.116 0 00-4.11-4.11zm1.37 232.8a1.366 1.366 0 01-1.37 1.37h-338.24a1.366 1.366 0 01-1.37-1.37v-228.69a1.372 1.372 0 011.37-1.37h338.24a1.372 1.372 0 011.37 1.37z" fill="#3f3d56"/><rect x="344.335" y="429.587" width="154.743" height="17.802" rx="2" fill="#3f3d56"/><path d="M640.122 414.526h-49.29a4.11 4.11 0 00-4.11 4.11v38.34a4.11 4.11 0 004.11 4.11h49.29a4.11 4.11 0 004.11-4.11v-38.34a4.11 4.11 0 00-4.11-4.11zm1.37 42.45a1.372 1.372 0 01-1.37 1.37h-49.29a1.372 1.372 0 01-1.37-1.37v-38.34a1.366 1.366 0 011.37-1.37h49.29a1.366 1.366 0 011.37 1.37z" fill="#3f3d56"/><rect x="598.676" y="423.372" width="33.603" height="6.952" rx="2" fill="#3f3d56"/><rect x="598.676" y="434.328" width="33.603" height="6.952" rx="2" fill="#3f3d56"/><rect x="598.676" y="445.283" width="33.603" height="6.952" rx="2" fill="#3f3d56"/><rect x="348.444" y="284.431" width="71.209" height="30.127" rx="2" fill="#3f3d56"/><path d="M389.526 299.494c0 5.294-2.453 9.586-5.478 9.586s-5.478-4.292-5.478-9.586 5.478-9.586 5.478-9.586 5.478 4.292 5.478 9.586z" fill="#3dc8bb"/><path fill="#3f3d56" d="M901.992 161.837h-2v223.614h-227v2h229V161.837zm-596 225.614h-229V161.837h2v223.614h227v2z"/><path d="M1027.351 37.81h-1.281v-2.243h.96a.64.64 0 00.642-.641V23.39a.64.64 0 00-.641-.641h-.961v-6.551a13.956 13.956 0 00-13.956-13.956h-1.425V.64a.64.64 0 00-.64-.641h-11.536a.64.64 0 00-.64.64v1.603H789.457A13.956 13.956 0 00775.5 16.199v296.994a13.956 13.956 0 0013.956 13.956h222.657a13.956 13.956 0 0013.956-13.956V50.626h1.281a.64.64 0 00.641-.64V38.45a.64.64 0 00-.64-.64z" fill="#3f3d56"/><rect x="787.035" y="11.372" width="229.423" height="304.406" rx="1.905" fill="#d0cde1"/><rect x="875.401" y="160.558" width="39.357" height="11.663" rx="2" fill="#3f3d56"/><rect x="827.821" y="69.754" width="134.517" height="4.998" rx="2" fill="#3f3d56"/><rect x="827.821" y="85.582" width="134.517" height="4.998" rx="2" fill="#3f3d56"/><rect x="827.821" y="101.41" width="134.517" height="4.998" rx="2" fill="#3f3d56"/><rect x="827.821" y="117.239" width="134.517" height="4.998" rx="2" fill="#3f3d56"/><rect x="827.821" y="133.067" width="134.517" height="4.998" rx="2" fill="#3f3d56"/><circle cx="890.317" cy="261.978" r="41.78" fill="#3dc8bb"/><path d="M902.632 294.204a52.382 52.382 0 1152.382-52.382 52.441 52.441 0 01-52.382 52.382zm0-102.859a50.477 50.477 0 1050.477 50.477 50.534 50.534 0 00-50.477-50.477zM155.492 87.912h-1.713V40.973a27.167 27.167 0 00-27.167-27.166H27.167A27.167 27.167 0 000 40.973v257.508a27.167 27.167 0 0027.167 27.166h99.445a27.167 27.167 0 0027.167-27.166V121.323h1.713z" fill="#3f3d56"/><path d="M147.993 42.57v257.132a20.288 20.288 0 01-20.284 20.292H27.783A20.288 20.288 0 017.5 299.702V42.57a20.287 20.287 0 0120.284-20.285h12.124a9.638 9.638 0 008.925 13.276h56.971a9.637 9.637 0 008.925-13.276h12.98a20.287 20.287 0 0120.285 20.285z" fill="#d0cde1"/><rect x="64.362" y="173.773" width="26.768" height="7.933" rx="2" fill="#3f3d56"/><rect x="32" y="112.012" width="91.492" height="3.4" rx="1.7" fill="#3f3d56"/><rect x="32" y="122.778" width="91.492" height="3.4" rx="1.7" fill="#3f3d56"/><rect x="32" y="133.544" width="91.492" height="3.4" rx="1.7" fill="#3f3d56"/><rect x="32" y="144.309" width="91.492" height="3.4" rx="1.7" fill="#3f3d56"/><rect x="32" y="155.075" width="91.492" height="3.4" rx="1.7" fill="#3f3d56"/><circle cx="69.875" cy="256.355" r="28.813" fill="#3dc8bb"/><path d="M78.367 278.579a36.125 36.125 0 1136.125-36.125 36.165 36.165 0 01-36.125 36.125zm0-70.936a34.811 34.811 0 1034.811 34.811 34.85 34.85 0 00-34.81-34.81z" fill="#3f3d56"/><path fill="#d0cde1" d="M147.505 375.19h28v28h-28z"/><path d="M192.505 387.19h-34v-34h34zm-32.522-1.479h31.043v-31.043h-31.043z" fill="#3f3d56"/><path fill="#d0cde1" d="M774.505 375.19h28v28h-28z"/><path d="M819.505 387.19h-34v-34h34zm-32.522-1.479h31.043v-31.043h-31.043z" fill="#3f3d56"/></svg>