<svg data-name="Layer 1" xmlns="http://www.w3.org/2000/svg" width="930" height="788" viewBox="0 0 930 788"><circle cx="748.166" cy="49.477" r="14.756" fill="#f1f1f1"/><circle cx="661.166" cy="620.477" r="14.756" fill="#f1f1f1"/><circle cx="294.166" cy="191.477" r="14.756" fill="#f1f1f1"/><ellipse cx="157" cy="765" rx="157" ry="23" fill="#f1f1f1"/><path d="M239.936 598.976l39.415-12.348a144.462 144.462 0 00-14.722-46.994l-39.415 12.347a88.611 88.611 0 0114.722 46.995z" fill="#3dc8bb"/><circle cx="145.2" cy="266.353" r="36.8" fill="#2f2e41"/><path fill="#9f616a" d="M105.5 727.5l-7 30h17l7-34-17 4zm82 0v28l17 2v-30h-17zm-87-318s2 43 4 46 20 46 20 46l9-28s-14-23-12-36 .74-28.997.74-28.997z"/><circle cx="157.5" cy="277.5" r="28" fill="#9f616a"/><path d="M134.5 280.5s1 40-6 46 40 1 40 1-10-28-2-34-32-13-32-13z" fill="#9f616a"/><path d="M171.5 325.5s-6-11-14-10-34 3-35 5-4 9-6 11-17 5-18 17 36 85 36 85-5 17-4 21-5 16-4 21-15 35-7 74v63s-27 109-19 117 35 3 40 0 26-154 26-154l10-51 1 112s-2 94 5 97 34 4 36-2c1.56-4.68 9.202-129.189 12.49-183.766a203.905 203.905 0 00-4.402-56.176c-4.162-18.878-10.204-41.057-17.088-50.058-13-17-21-71-21-71l17-31s-10-10-16-10-18-4-18-4z" fill="#2f2e41"/><path d="M104.5 341.5l-5.274 3.59S95.5 409.5 98.5 413.5s23.857 2.048 25.429-1.476S104.5 341.5 104.5 341.5z" fill="#2f2e41"/><path d="M186.5 401.5s1 42 7 54 28 62 28 62-1.277 55.032 9.861 41.516S235.5 513.5 235.5 513.5l-19-74s-10-33-9-43-21 5-21 5z" fill="#9f616a"/><path d="M204.5 739.3s1-.8 4 2.2 11 7 10 18-7 13-7 13v-3h-3v5s-5 16-28 6c0 0-1-8 0-13s1-29 4-28 11 2 13 6 8 2.598 7-6.2zm-103 1s-1-.8-4 2.2-11 7-10 18 7 13 7 13v-3h3v5s5 16 28 6c0 0 1-8 0-13s-1-29-4-28-11 2-13 6-8 2.598-7-6.2zm90-403.8l14 3s0 22 4 31 11 30 8 31-31 15-33 7-7-72 7-72z" fill="#2f2e41"/><circle cx="105.334" cy="217.9" r="36.8" fill="#2f2e41"/><path d="M73.592 248.372a36.802 36.802 0 0056.829-19.323 36.802 36.802 0 11-71.787-15.091 36.788 36.788 0 0014.958 34.414z" fill="#2f2e41"/><circle cx="135.387" cy="272.486" r="26.987" fill="#2f2e41"/><ellipse cx="158.08" cy="262.366" rx="23.92" ry="18.707" fill="#2f2e41"/><ellipse cx="164.46" cy="281.535" rx="4.54" ry="8.032" fill="#a0616a"/><path fill="#f1f1f1" d="M406.203 21.663l511.439 153.579-123.38 410.875-511.439-153.579z"/><path fill="none" stroke="#3f3d56" stroke-miterlimit="10" stroke-width="2" d="M611.165 141.893l121.14 48.965"/><path fill="#3f3d56" d="M614.244 151.96l1.814-.847-4.182-8.931 9.214-3.518-.716-1.869-11.221 4.287 5.091 10.878zm108.852 43.998l-.716-1.869 9.213-3.517-4.181-8.932 1.814-.847 5.09 10.88-11.22 4.285z"/><circle cx="671.735" cy="166.375" r="11" fill="#3f3d56"/><path fill="none" stroke="#3f3d56" stroke-miterlimit="10" stroke-width="2" d="M601.934 481.351L713.537 413.4"/><path fill="#3f3d56" d="M611.848 484.891l.403-1.961-9.661-1.977 2.678-9.492-1.927-.542-3.259 11.561 11.766 2.411zm100.282-61.058l-1.927-.542 2.679-9.49-9.662-1.979.404-1.96 11.767 2.412-3.261 11.559z"/><circle cx="657.735" cy="447.375" r="11" fill="#3f3d56"/><path fill="none" stroke="#3f3d56" stroke-miterlimit="10" stroke-width="2" d="M461.716 266.044l.039 130.662"/><path fill="#3f3d56" d="M453.538 272.674l1.465 1.364 6.711-7.226 6.717 7.222 1.464-1.365-8.182-8.794-8.175 8.799zm.035 117.408l1.465-1.365 6.715 7.222 6.713-7.226 1.465 1.364-8.177 8.798-8.181-8.793z"/><circle cx="461.735" cy="331.375" r="11" fill="#3f3d56"/><path fill="#3f3d56" d="M369 0h182v226H369z"/><path d="M448.621 84.134h-41.304a144.462 144.462 0 010-49.246h41.304a88.612 88.612 0 000 49.246z" fill="#ff6584"/><path d="M471.379 109.112h41.304a144.462 144.462 0 000-49.246h-41.304a88.612 88.612 0 010 49.246zm-39 82h41.304a144.462 144.462 0 000-49.246h-41.304a88.612 88.612 0 010 49.246z" fill="#3dc8bb"/><path fill="#3f3d56" d="M748 215h182v226H748z"/><path fill="#3dc8bb" d="M774 263h130v6H774zm0 21h130v6H774zm0 21h130v6H774zm0 21h130v6H774zm0 21h130v6H774zm31 22h68v24h-68z"/><path fill="#3f3d56" d="M385 447h182v226H385z"/><path fill="#3dc8bb" d="M411.297 572.806h130v6h-130zm0 21h130v6h-130zm0 21h130v6h-130zm0 21h130v6h-130z"/><path d="M451.121 527.44h-41.304a144.462 144.462 0 010-49.246h41.304a88.612 88.612 0 000 49.247zm17.176-44.634h76v5h-76zm0 18h76v5h-76zm0 18h76v5h-76zm0 18h76v5h-76z" fill="#3dc8bb" opacity=".3"/></svg>